<svg xmlns="http://www.w3.org/2000/svg" width="1186" height="1587" viewBox="0 0 118600 158725" shape-rendering="geometricPrecision" image-rendering="optimizeQuality" fill-rule="evenodd" clip-rule="evenodd"><path d="m85569 105521v23942h-42784v29262h-32145v-29262h-10640v-23942h10640v-13079h-10640v-25272h10640v-67170h45667c16996 0 29299 1441 36873 4323 7649 2808 13819 7870 18511 15148 4618 7242 6909 15555 6909 25013 0 7722-960 14262-2845 19656-1921 5357-4544 9828-7833 13375-3325 3510-7241 6318-11786 8313-4544 2032-9458 3547-14779 4508-5357 960-10899 1552-16700 1773-5800 222-11638 333-17550 333h-4322v13079h42784m-42784-38351h1958c15296 0 24828-665 28634-1958 3879-1293 6909-3547 9015-6725 2106-3177 3177-7167 3177-11933 0-5432-1367-9754-4101-13043-2734-3325-6798-5357-12155-6133-1293-148-3880-296-7722-407-3843-110-9052-147-15592-147h-3214v40346" fill="#fff" fill-rule="nonzero"/></svg>